<svg width="25" height="26" viewBox="0 0 25 26" fill="none" xmlns="http://www.w3.org/2000/svg">
<path d="M17.6703 17.4808L3.51404 25.5257C2.87946 25.8856 2.29801 25.9452 1.85193 25.7543L13.8969 13.7074L17.6703 17.4808ZM13.1898 13.0004L1.15662 25.0355C1.03855 24.7682 0.973022 24.4407 0.973022 24.0589V1.94274C0.973058 1.5616 1.03755 1.2336 1.15564 0.966174L13.1898 13.0004ZM23.015 11.558C24.412 12.3519 24.4118 13.6507 23.015 14.4457L18.5726 16.9691L14.6039 13.0004L18.5707 9.03258L23.015 11.558ZM1.85193 0.2484C2.29798 0.0572649 2.87953 0.11636 3.51404 0.476916L17.6693 8.51988L13.8969 12.2933L1.85193 0.2484Z" fill="white"/>
</svg>
