<svg width="21" height="20" viewBox="0 0 21 20" fill="none" xmlns="http://www.w3.org/2000/svg">
<rect x="1.65002" y="1.25" width="17.5" height="17.5" rx="6" fill="url(#paint0_radial_215_808)"/>
<rect x="1.65002" y="1.25" width="17.5" height="17.5" rx="6" fill="url(#paint1_radial_215_808)"/>
<rect x="1.65002" y="1.25" width="17.5" height="17.5" rx="6" fill="url(#paint2_radial_215_808)"/>
<path d="M14.775 6.5625C14.775 7.08027 14.3553 7.5 13.8375 7.5C13.3198 7.5 12.9 7.08027 12.9 6.5625C12.9 6.04473 13.3198 5.625 13.8375 5.625C14.3553 5.625 14.775 6.04473 14.775 6.5625Z" fill="white"/>
<path fill-rule="evenodd" clip-rule="evenodd" d="M10.4 13.125C12.1259 13.125 13.525 11.7259 13.525 10C13.525 8.27411 12.1259 6.875 10.4 6.875C8.67413 6.875 7.27502 8.27411 7.27502 10C7.27502 11.7259 8.67413 13.125 10.4 13.125ZM10.4 11.875C11.4356 11.875 12.275 11.0355 12.275 10C12.275 8.96447 11.4356 8.125 10.4 8.125C9.36449 8.125 8.52502 8.96447 8.52502 10C8.52502 11.0355 9.36449 11.875 10.4 11.875Z" fill="white"/>
<path fill-rule="evenodd" clip-rule="evenodd" d="M4.15002 9.75C4.15002 7.6498 4.15002 6.5997 4.55875 5.79754C4.91828 5.09193 5.49195 4.51825 6.19756 4.15873C6.99973 3.75 8.04983 3.75 10.15 3.75H10.65C12.7502 3.75 13.8003 3.75 14.6025 4.15873C15.3081 4.51825 15.8818 5.09193 16.2413 5.79754C16.65 6.5997 16.65 7.6498 16.65 9.75V10.25C16.65 12.3502 16.65 13.4003 16.2413 14.2025C15.8818 14.9081 15.3081 15.4817 14.6025 15.8413C13.8003 16.25 12.7502 16.25 10.65 16.25H10.15C8.04983 16.25 6.99973 16.25 6.19756 15.8413C5.49195 15.4817 4.91828 14.9081 4.55875 14.2025C4.15002 13.4003 4.15002 12.3502 4.15002 10.25V9.75ZM10.15 5H10.65C11.7207 5 12.4486 5.00097 13.0112 5.04694C13.5592 5.09171 13.8395 5.17287 14.035 5.27248C14.5054 5.51217 14.8879 5.89462 15.1275 6.36502C15.2272 6.56052 15.3083 6.84078 15.3531 7.3888C15.3991 7.95141 15.4 8.67928 15.4 9.75V10.25C15.4 11.3207 15.3991 12.0486 15.3531 12.6112C15.3083 13.1592 15.2272 13.4395 15.1275 13.635C14.8879 14.1054 14.5054 14.4878 14.035 14.7275C13.8395 14.8271 13.5592 14.9083 13.0112 14.9531C12.4486 14.999 11.7207 15 10.65 15H10.15C9.0793 15 8.35143 14.999 7.78882 14.9531C7.2408 14.9083 6.96055 14.8271 6.76505 14.7275C6.29464 14.4878 5.91219 14.1054 5.67251 13.635C5.5729 13.4395 5.49174 13.1592 5.44696 12.6112C5.401 12.0486 5.40002 11.3207 5.40002 10.25V9.75C5.40002 8.67928 5.401 7.95141 5.44696 7.3888C5.49174 6.84078 5.5729 6.56052 5.67251 6.36502C5.91219 5.89462 6.29464 5.51217 6.76505 5.27248C6.96055 5.17287 7.2408 5.09171 7.78882 5.04694C8.35143 5.00097 9.0793 5 10.15 5Z" fill="white"/>
<defs>
<radialGradient id="paint0_radial_215_808" cx="0" cy="0" r="1" gradientUnits="userSpaceOnUse" gradientTransform="translate(7.90002 14.375) rotate(-55.3758) scale(15.9498)">
<stop stop-color="#B13589"/>
<stop offset="0.79309" stop-color="#C62F94"/>
<stop offset="1" stop-color="#8A3AC8"/>
</radialGradient>
<radialGradient id="paint1_radial_215_808" cx="0" cy="0" r="1" gradientUnits="userSpaceOnUse" gradientTransform="translate(7.27502 19.375) rotate(-65.1363) scale(14.1214)">
<stop stop-color="#E0E8B7"/>
<stop offset="0.444662" stop-color="#FB8A2E"/>
<stop offset="0.71474" stop-color="#E2425C"/>
<stop offset="1" stop-color="#E2425C" stop-opacity="0"/>
</radialGradient>
<radialGradient id="paint2_radial_215_808" cx="0" cy="0" r="1" gradientUnits="userSpaceOnUse" gradientTransform="translate(0.712525 1.875) rotate(-8.1301) scale(24.3068 5.19897)">
<stop offset="0.156701" stop-color="#406ADC"/>
<stop offset="0.467799" stop-color="#6A45BE"/>
<stop offset="1" stop-color="#6A45BE" stop-opacity="0"/>
</radialGradient>
</defs>
</svg>
