<svg width="21" height="20" viewBox="0 0 21 20" fill="none" xmlns="http://www.w3.org/2000/svg">
<rect x="1.65002" y="1.25" width="17.5" height="17.5" rx="8.75" fill="#1275B1"/>
<path d="M8.28662 6.05759C8.28662 6.64169 7.78035 7.11519 7.15582 7.11519C6.5313 7.11519 6.02502 6.64169 6.02502 6.05759C6.02502 5.4735 6.5313 5 7.15582 5C7.78035 5 8.28662 5.4735 8.28662 6.05759Z" fill="white"/>
<path d="M6.17966 7.89256H8.11265V13.75H6.17966V7.89256Z" fill="white"/>
<path d="M11.2248 7.89256H9.29178V13.75H11.2248C11.2248 13.75 11.2248 11.906 11.2248 10.753C11.2248 10.061 11.4611 9.36596 12.4039 9.36596C13.4694 9.36596 13.463 10.2716 13.458 10.9732C13.4515 11.8903 13.467 12.8262 13.467 13.75H15.4V10.6586C15.3837 8.68461 14.8693 7.77505 13.1771 7.77505C12.1721 7.77505 11.5492 8.23129 11.2248 8.64406V7.89256Z" fill="white"/>
</svg>
