<svg width="21" height="20" viewBox="0 0 21 20" fill="none" xmlns="http://www.w3.org/2000/svg">
<path d="M7.76799 17.5C5.74611 17.5 3.86138 16.9119 2.27502 15.8973C3.6219 15.9844 5.99882 15.7757 7.47726 14.3655C5.2532 14.2634 4.25019 12.5577 4.11936 11.8287C4.30833 11.9016 5.20959 11.9891 5.71836 11.785C3.15996 11.1435 2.76748 8.89833 2.8547 8.21311C3.3344 8.54843 4.14843 8.66506 4.46823 8.6359C2.08427 6.93015 2.94192 4.36422 3.36347 3.81022C5.07429 6.18042 7.63828 7.51161 10.8103 7.58565C10.7505 7.32335 10.7189 7.05026 10.7189 6.76978C10.7189 4.75682 12.3459 3.125 14.353 3.125C15.4016 3.125 16.3465 3.57047 17.0098 4.28302C17.7106 4.11882 18.7652 3.73442 19.2808 3.402C19.0209 4.33507 18.2119 5.11343 17.7225 5.40192C17.7185 5.39207 17.7265 5.41174 17.7225 5.40192C18.1524 5.3369 19.3155 5.11336 19.775 4.8016C19.5478 5.32578 18.69 6.19733 17.9861 6.68526C18.1171 12.4613 13.6978 17.5 7.76799 17.5Z" fill="#47ACDF"/>
</svg>
