<svg width="923" height="346" viewBox="0 0 923 346" fill="none" xmlns="http://www.w3.org/2000/svg">
<g style="mix-blend-mode:multiply" opacity="0.52">
<path d="M331.849 1129.97H295.327L272.568 1093.81H231.445V1062.77H234.431V1050.55H180.763V925.827C181.429 923.571 181.814 921.204 181.814 918.756V899.675L190.131 892.725L174.74 755.45L169.986 713.08C169.857 711.988 168.73 706.818 167.025 699.372C166.782 698.31 166.526 697.197 166.257 696.043C164.539 688.658 162.386 679.563 160.118 670.144L159.58 667.888C159.554 667.767 159.529 667.656 159.49 667.534C159.131 666.057 158.773 664.58 158.414 663.093C157.696 660.129 156.966 657.164 156.248 654.251C155.531 651.327 154.826 648.454 154.121 645.662C149.956 628.908 146.368 615.21 145.509 613.571L85.8693 506.11L84.6647 503.935L76.6555 489.508C73.5799 483.661 68.595 478.228 62.0082 473.503L51.3078 465.835C18.5404 433.582 -18.1099 416.829 -39.6131 411.042C-43.0731 410.111 -46.6869 409.514 -50.3391 409.201V405.002H-47.1482C-42.2658 405.002 -37.7806 402.888 -35.4483 399.499L-26.9393 387.065C-24.812 383.949 -24.812 380.196 -26.9393 377.08L-35.4483 364.646C-37.7678 361.257 -42.2658 359.142 -47.1482 359.142H-50.3391V346.81H-44.9441L-47.3405 339.941C-48.135 337.664 -50.5697 336.096 -53.4402 335.732V260.726C-42.4452 248.667 -19.1735 257.66 7.07116 267.555C35.3534 278.218 61.6622 282.598 79.385 262.264C97.1079 241.939 144.228 262.264 144.228 262.264C114.536 210.718 54.5115 260.786 16.1056 221.128C-15.406 188.603 -46.4177 194.248 -53.4531 195.624V193.601C-49.5189 192.771 -46.5972 189.969 -46.5972 186.6C-46.5972 182.583 -50.7236 179.326 -55.811 179.326C-60.8985 179.326 -65.0249 182.583 -65.0249 186.6C-65.0249 189.969 -62.103 192.781 -58.1689 193.601V335.732C-61.0522 336.086 -63.4742 337.664 -64.2688 339.941L-66.6651 346.81H-61.2701V359.142H-64.461C-69.3434 359.142 -73.8286 361.257 -76.1609 364.646L-84.67 377.08C-86.7972 380.196 -86.7972 383.949 -84.67 387.065L-76.1609 399.499C-73.8414 402.888 -69.3434 405.002 -64.461 405.002H-61.2701V409.15C-65.1274 409.454 -68.9333 410.071 -72.5855 411.042C-94.1657 416.798 -130.573 433.552 -163.763 466.442L-173.617 473.513C-180.204 478.238 -185.189 483.681 -188.265 489.518L-192.199 496.772L-193.378 498.957L-255.453 613.571C-256.619 615.787 -263.142 639.915 -269.382 663.872L-269.959 666.108C-275.841 688.769 -281.326 710.682 -281.582 713.07L-301.432 890.125L-301.688 892.381L-301.765 893.018L-293.41 899.655V918.735C-293.41 923.733 -291.911 928.387 -289.373 932.363V1050.53H-346.028V1062.75H-343.042V1093.79H-382.255L-405.014 1129.95H-441.536L-494.551 1195.07H384.851L331.836 1129.95L331.849 1129.97Z" stroke="url(#paint0_linear_1_20186)" stroke-width="2" stroke-miterlimit="10"/>
</g>
<g style="mix-blend-mode:multiply" opacity="0.52">
<path d="M866.977 962.703H830.032L807.016 926.121H765.42V894.718H768.431V882.355H714.148V756.198C714.814 753.912 715.211 751.524 715.211 749.035V729.732L723.63 722.701L708.06 583.837L703.255 540.982C703.127 539.88 701.986 534.649 700.256 527.112C700.013 526.04 699.744 524.907 699.475 523.743C697.745 516.267 695.553 507.071 693.259 497.551L692.708 495.274C692.683 495.153 692.657 495.032 692.619 494.91C692.26 493.413 691.888 491.916 691.529 490.418C690.799 487.424 690.069 484.429 689.338 481.475C688.608 478.521 687.89 475.617 687.185 472.785C682.969 455.839 679.343 441.979 678.471 440.32L618.139 331.614L616.922 329.419L608.823 314.83C605.709 308.922 600.66 303.419 593.996 298.633L583.18 290.874C550.028 258.247 512.955 241.301 491.209 235.444C487.697 234.503 484.058 233.906 480.354 233.582V229.333H483.584C488.53 229.333 493.067 227.198 495.412 223.769L504.023 211.194C506.176 208.047 506.176 204.243 504.023 201.097L495.412 188.522C493.067 185.092 488.518 182.957 483.584 182.957H480.354V170.483H485.814L483.392 163.533C482.584 161.237 480.124 159.638 477.215 159.284V83.4076C488.338 71.2067 511.879 80.3018 538.431 90.3175C567.034 101.102 593.65 105.533 611.591 84.9656C629.519 64.4082 677.19 84.9656 677.19 84.9656C647.152 32.8234 586.435 83.4684 547.581 43.3551C515.711 10.445 484.34 16.1711 477.228 17.547V15.5034C481.213 14.6637 484.161 11.831 484.161 8.4216C484.161 4.35463 479.983 1.06665 474.844 1.06665C469.705 1.06665 465.528 4.36474 465.528 8.4216C465.528 11.831 468.475 14.6738 472.461 15.5034V159.274C469.552 159.638 467.091 161.226 466.284 163.523L463.862 170.473H469.321V182.947H466.092C461.158 182.947 456.609 185.082 454.264 188.512L445.652 201.087C443.499 204.233 443.499 208.037 445.652 211.183L454.264 223.759C456.609 227.188 461.158 229.323 466.092 229.323H469.321V233.511C465.425 233.815 461.568 234.442 457.877 235.423C436.041 241.241 399.211 258.196 365.649 291.461L355.679 298.613C349.016 303.388 343.979 308.892 340.865 314.81L336.893 322.145L335.688 324.361L272.896 440.3C271.717 442.535 265.117 466.947 258.8 491.187L258.21 493.453C252.251 516.378 246.715 538.544 246.446 540.962L226.365 720.071L226.109 722.357L226.032 723.005L234.49 729.722V749.025C234.49 754.073 236.002 758.788 238.578 762.814V882.345H181.257V894.708H184.269V926.11H144.594L121.579 962.693H84.6337L31.0038 1028.56H920.581L866.951 962.693L866.977 962.703Z" stroke="url(#paint1_linear_1_20186)" stroke-width="2" stroke-miterlimit="10"/>
</g>
<path style="mix-blend-mode:multiply" opacity="0.52" d="M316.634 549.409C315.596 557.351 314.353 566.81 312.982 577.241C299.167 577.433 299.68 585.436 301.166 593.145C303.396 604.738 305.818 616.363 309.47 627.704C313.328 639.692 316.48 651.316 310.393 662.829C310.393 665.672 310.252 668.515 310.47 671.348C310.547 672.4 311.508 673.412 312.059 674.444C313.302 676.811 315.929 679.35 315.532 681.535C314.058 689.669 319.12 694.04 327.847 696.61C337.445 699.442 340.982 704.501 339.88 712.665C338.88 720.131 339.482 727.749 339.726 735.296C339.88 739.98 338.445 742.479 331.499 742.469C226.661 742.338 121.836 742.368 16.9982 742.328C15.5502 742.328 14.1149 741.903 11.2828 741.468C11.2828 729.408 10.578 717.379 11.7826 705.462C12.0773 702.487 17.985 699.088 22.2523 697.287C30.9536 693.625 36.6945 689.841 35.9128 680.726C35.4259 674.98 39.6548 668.98 42.3459 661.494C34.2598 650.871 38.5271 638.458 42.3331 625.61C46.6517 611.072 48.9455 596.159 52.1492 581.288C45.6906 579.305 41.9102 578.151 38.117 576.988C36.8099 566.962 35.5412 557.22 34.4007 548.489C28.5572 546.384 23.4441 544.553 18.3438 542.722C23.3159 540.426 28.2752 538.119 34.8877 535.064C34.9517 534.224 35.695 531.523 35.2978 528.923C33.9778 520.283 37.1559 514.82 49.4709 514.395C51.7135 514.314 53.8664 512.493 56.0577 511.471C54.379 509.711 53.1231 507.495 50.9574 506.271C45.0626 502.943 44.1271 498.835 48.2535 494.617C53.9433 488.799 60.6711 483.62 66.4633 477.853C68.5393 475.789 69.667 472.896 70.3718 470.235C77.2534 444.579 82.815 418.669 91.1318 393.317C96.4884 376.978 107.009 362.551 124.091 350.725C134.817 343.299 140.904 331.685 149.465 321.477C145.838 320.081 141.327 318.351 136.829 316.621C136.829 315.761 136.817 314.901 136.804 314.031C143.493 312.625 150.298 311.441 156.846 309.701C159.819 308.912 162.318 307 165.035 305.593C163.292 303.611 162.087 300.99 159.717 299.766C151.477 295.527 150.746 290.519 155.962 284.419C156.385 283.923 156.692 283.316 157.231 282.912C174.056 270.215 175.402 254.159 174.133 237.143C173.185 224.517 173.941 211.82 173.941 199.276C196.226 194.602 217.14 194.399 239.284 200.277C251.535 203.525 266.592 200.227 281.175 199.852C273.448 204.02 265.259 208.431 254.841 214.046C262.876 215.038 269.27 215.817 275.152 216.545C265.272 223.677 248.549 225.347 230.198 219.833C215.602 215.452 201.237 215.26 186.359 218.518C179.349 220.056 176.26 222.919 176.517 228.797C176.94 238.448 176.094 248.15 176.888 257.781C177.234 261.99 179.644 266.36 182.335 270.104C185.897 275.061 190.716 279.452 194.88 284.156C200.544 290.57 199.737 295.811 190.664 299.989C188.486 300.99 185.564 304.39 186.115 305.037C187.794 307.03 190.741 308.821 193.663 309.6C200.263 311.37 207.144 312.493 213.923 313.869C213.987 314.759 214.038 315.64 214.103 316.53C209.925 318.179 205.747 319.828 200.263 321.983C211.693 333.445 223.534 344.564 234.26 356.309C242.231 365.04 251.842 373.923 255.341 383.918C265.285 412.346 272.5 441.362 280.688 470.174C281.713 473.766 282.188 476.204 287.313 479.006C294.669 483.033 299.564 490.459 303.78 497.115C305.049 499.129 301.615 504.258 298.565 506.433C293.567 510.004 293.298 513.707 299.436 513.92C316.339 514.496 317.018 522.66 315.865 532.484C315.762 533.364 315.955 534.295 316.185 535.175C316.326 535.742 316.788 536.247 316.365 535.539C322.58 537.998 327.552 539.97 332.524 541.943C327.859 544.128 323.195 546.304 316.647 549.369L316.634 549.409Z" stroke="url(#paint2_linear_1_20186)" stroke-width="2" stroke-miterlimit="10"/>
<defs>
<linearGradient id="paint0_linear_1_20186" x1="221.386" y1="1271.68" x2="-239.41" y2="260.717" gradientUnits="userSpaceOnUse">
<stop stop-color="#E93B77"/>
<stop offset="0.19" stop-color="#EA4E6C"/>
<stop offset="0.73" stop-color="#ED814F"/>
<stop offset="1" stop-color="#EF9545"/>
</linearGradient>
<linearGradient id="paint1_linear_1_20186" x1="755.232" y1="1106.03" x2="289.118" y2="83.4025" gradientUnits="userSpaceOnUse">
<stop stop-color="#E93B77"/>
<stop offset="0.19" stop-color="#EA4E6C"/>
<stop offset="0.73" stop-color="#ED814F"/>
<stop offset="1" stop-color="#EF9545"/>
</linearGradient>
<linearGradient id="paint2_linear_1_20186" x1="344.365" y1="739.373" x2="110.713" y2="226.759" gradientUnits="userSpaceOnUse">
<stop stop-color="#E93B77"/>
<stop offset="0.19" stop-color="#EA4E6C"/>
<stop offset="0.73" stop-color="#ED814F"/>
<stop offset="1" stop-color="#EF9545"/>
</linearGradient>
</defs>
</svg>
