<svg width="642" height="398" viewBox="0 0 642 398" fill="none" xmlns="http://www.w3.org/2000/svg">
<g style="mix-blend-mode:multiply" opacity="0.52">
<path d="M508.513 656.087H486.172L472.251 632.857H447.096V612.921H448.922V605.071H416.093V524.965C416.501 523.516 416.736 521.995 416.736 520.423V508.167L421.823 503.703L412.409 415.533L409.5 388.319C409.422 387.617 408.732 384.297 407.69 379.515C407.541 378.832 407.384 378.117 407.219 377.377C406.169 372.633 404.852 366.792 403.464 360.742L403.135 359.293C403.12 359.215 403.104 359.143 403.08 359.065C402.861 358.117 402.641 357.168 402.422 356.213C401.983 354.309 401.536 352.405 401.097 350.534C400.658 348.656 400.227 346.81 399.796 345.017C397.248 334.256 395.053 325.458 394.528 324.405L358.046 255.384L357.309 253.987L352.41 244.721C350.529 240.965 347.479 237.476 343.45 234.441L336.905 229.516C316.861 208.8 294.441 198.04 281.288 194.323C279.171 193.725 276.961 193.342 274.727 193.14V190.444H276.679C279.665 190.444 282.409 189.086 283.835 186.909L289.04 178.923C290.342 176.921 290.342 174.511 289.04 172.509L283.835 164.523C282.417 162.347 279.665 160.988 276.679 160.988H274.727V153.067H278.027L276.561 148.655C276.075 147.193 274.586 146.186 272.83 145.952V97.7764C279.555 90.0308 293.791 95.8075 309.845 102.163C327.145 109.011 343.238 111.825 354.08 98.7641C364.921 85.7097 393.744 98.7641 393.744 98.7641C375.582 65.657 338.864 97.8154 315.371 72.3434C296.095 51.4525 277.125 55.0784 272.822 55.9621V54.6625C275.228 54.1297 277.016 52.3297 277.016 50.1659C277.016 47.5862 274.491 45.4939 271.379 45.4939C268.267 45.4939 265.743 47.5862 265.743 50.1659C265.743 52.3297 267.531 54.1362 269.937 54.6625V145.952C268.173 146.18 266.692 147.193 266.206 148.655L264.74 153.067H268.04V160.988H266.088C263.102 160.988 260.358 162.347 258.931 164.523L253.726 172.509C252.425 174.511 252.425 176.921 253.726 178.923L258.931 186.909C260.35 189.086 263.102 190.444 266.088 190.444H268.04V193.108C265.681 193.303 263.352 193.699 261.118 194.323C247.918 198.02 225.647 208.781 205.345 229.906L199.317 234.448C195.288 237.482 192.238 240.978 190.357 244.728L187.95 249.387L187.229 250.79L149.258 324.405C148.544 325.828 144.554 341.326 140.737 356.713L140.384 358.149C136.786 372.705 133.431 386.779 133.274 388.313L121.132 502.033L120.975 503.482L120.928 503.892L126.039 508.154V520.41C126.039 523.62 126.956 526.609 128.508 529.162V605.058H93.8525V612.908H95.679V632.844H71.692L57.7702 656.074H35.4294L3 697.895H540.935L508.505 656.074L508.513 656.087Z" stroke="url(#paint0_linear_1_20205)" stroke-width="2" stroke-miterlimit="10"/>
</g>
<g style="mix-blend-mode:multiply" opacity="0.52">
<path d="M835.849 548.65H813.249L799.17 525.153H773.726V504.984H775.568V497.043H742.362V416.014C742.77 414.545 743.013 413.012 743.013 411.413V399.015L748.163 394.499L738.639 305.308L735.699 277.783C735.621 277.074 734.923 273.715 733.865 268.874C733.716 268.185 733.551 267.457 733.387 266.71C732.328 261.908 730.988 256.002 729.585 249.887L729.248 248.425C729.232 248.347 729.216 248.269 729.193 248.191C728.973 247.229 728.746 246.268 728.527 245.306C728.08 243.382 727.633 241.459 727.186 239.562C726.739 237.664 726.3 235.799 725.869 233.98C723.29 223.096 721.072 214.194 720.539 213.128L683.633 143.308L682.889 141.898L677.935 132.527C676.03 128.733 672.941 125.198 668.865 122.124L662.249 117.14C641.97 96.1844 619.292 85.3003 605.989 81.538C603.842 80.9337 601.615 80.5503 599.35 80.3424V77.6133H601.325C604.351 77.6133 607.126 76.2422 608.56 74.0394L613.828 65.9625C615.145 63.9416 615.145 61.4984 613.828 59.4775L608.56 51.4005C607.126 49.1977 604.343 47.8267 601.325 47.8267H599.35V39.8147H602.689L601.208 35.3506C600.714 33.8756 599.209 32.8489 597.429 32.6215V-16.1132C604.233 -23.9497 618.633 -18.108 634.876 -11.6751C652.372 -4.74826 668.653 -1.90216 679.628 -15.1125C690.594 -28.3163 719.755 -15.1125 719.755 -15.1125C701.381 -48.6029 664.24 -16.0742 640.473 -41.8386C620.977 -62.9764 601.788 -59.2986 597.437 -58.4148V-59.7274C599.875 -60.2668 601.678 -62.0862 601.678 -64.276C601.678 -66.8882 599.122 -69 595.979 -69C592.836 -69 590.28 -66.8817 590.28 -64.276C590.28 -62.0862 592.083 -60.2603 594.521 -59.7274V32.615C592.742 32.8489 591.237 33.8691 590.743 35.3441L589.261 39.8082H592.601V47.8202H590.625C587.607 47.8202 584.824 49.1912 583.39 51.394L578.122 59.471C576.805 61.4918 576.805 63.9351 578.122 65.9559L583.39 74.0329C584.824 76.2357 587.607 77.6068 590.625 77.6068H592.601V80.2969C590.218 80.4919 587.858 80.8947 585.6 81.525C572.243 85.2614 549.714 96.1519 529.184 117.517L523.085 122.111C519.009 125.178 515.929 128.713 514.024 132.514L511.594 137.225L510.857 138.649L472.446 213.115C471.725 214.551 467.688 230.231 463.824 245.8L463.463 247.255C459.818 261.98 456.432 276.217 456.267 277.77L443.983 392.809L443.827 394.278L443.78 394.694L448.953 399.008V411.407C448.953 414.649 449.878 417.677 451.454 420.263V497.037H416.391V504.977H418.233V525.147H393.963L379.885 548.643H357.285L324.48 590.951H868.639L835.833 548.643L835.849 548.65Z" stroke="url(#paint1_linear_1_20205)" stroke-width="2" stroke-miterlimit="10"/>
</g>
<path style="mix-blend-mode:multiply" opacity="0.52" d="M499.201 283.196C498.566 288.296 497.805 294.372 496.966 301.071C488.516 301.195 488.83 306.335 489.739 311.286C491.103 318.733 492.585 326.199 494.819 333.483C497.178 341.183 499.106 348.649 495.383 356.044C495.383 357.87 495.297 359.696 495.43 361.515C495.477 362.191 496.065 362.841 496.402 363.504C497.162 365.024 498.769 366.655 498.526 368.059C497.625 373.283 500.721 376.09 506.06 377.741C511.931 379.56 514.094 382.809 513.42 388.053C512.809 392.848 513.177 397.741 513.326 402.589C513.42 405.597 512.542 407.202 508.294 407.196C444.164 407.111 380.042 407.131 315.912 407.105C315.026 407.105 314.148 406.832 312.416 406.553C312.416 398.807 311.985 391.081 312.722 383.426C312.902 381.516 316.516 379.333 319.126 378.176C324.449 375.824 327.96 373.394 327.482 367.539C327.184 363.848 329.771 359.995 331.417 355.186C326.471 348.363 329.081 340.391 331.409 332.138C334.051 322.801 335.454 313.223 337.414 303.671C333.463 302.397 331.151 301.656 328.83 300.909C328.031 294.47 327.255 288.212 326.557 282.604C322.983 281.253 319.855 280.077 316.735 278.9C319.777 277.425 322.81 275.944 326.855 273.981C326.894 273.442 327.349 271.707 327.106 270.037C326.299 264.488 328.243 260.979 335.776 260.706C337.148 260.654 338.464 259.485 339.805 258.828C338.778 257.698 338.01 256.275 336.685 255.488C333.079 253.35 332.507 250.712 335.031 248.003C338.511 244.266 342.627 240.939 346.17 237.236C347.44 235.91 348.13 234.052 348.561 232.343C352.77 215.864 356.172 199.223 361.26 182.939C364.537 172.444 370.972 163.178 381.421 155.582C387.983 150.813 391.706 143.353 396.942 136.797C394.724 135.9 391.965 134.789 389.213 133.678C389.213 133.125 389.205 132.573 389.198 132.014C393.29 131.111 397.452 130.351 401.458 129.233C403.276 128.726 404.805 127.498 406.467 126.595C405.401 125.321 404.664 123.638 403.214 122.852C398.173 120.129 397.726 116.913 400.917 112.995C401.175 112.676 401.364 112.286 401.693 112.027C411.985 103.872 412.808 93.5594 412.032 82.6298C411.452 74.5204 411.915 66.3654 411.915 58.308C425.546 55.3059 438.34 55.176 451.885 58.9513C459.379 61.0371 468.59 58.9188 477.51 58.6784C472.784 61.3555 467.774 64.1886 461.401 67.795C466.316 68.4318 470.228 68.9321 473.826 69.4C467.782 73.981 457.553 75.0532 446.327 71.5118C437.399 68.6982 428.611 68.5747 419.511 70.6671C415.223 71.6548 413.334 73.4937 413.49 77.269C413.749 83.468 413.232 89.6996 413.718 95.8856C413.929 98.5888 415.403 101.396 417.049 103.8C419.228 106.984 422.176 109.804 424.723 112.826C428.188 116.945 427.694 120.311 422.144 122.995C420.812 123.638 419.025 125.822 419.362 126.238C420.389 127.518 422.191 128.668 423.979 129.168C428.016 130.305 432.225 131.027 436.372 131.91C436.411 132.482 436.442 133.047 436.482 133.619C433.926 134.678 431.371 135.738 428.016 137.122C435.008 144.484 442.251 151.625 448.812 159.169C453.688 164.777 459.567 170.482 461.707 176.902C467.79 195.161 472.203 213.797 477.212 232.304C477.84 234.61 478.13 236.176 481.265 237.976C485.765 240.562 488.759 245.332 491.338 249.608C492.114 250.901 490.013 254.195 488.148 255.592C485.091 257.886 484.926 260.264 488.681 260.401C499.02 260.771 499.436 266.015 498.73 272.324C498.667 272.89 498.785 273.488 498.926 274.053C499.012 274.417 499.295 274.742 499.036 274.287C502.838 275.866 505.879 277.133 508.921 278.4C506.067 279.804 503.214 281.201 499.208 283.17L499.201 283.196Z" stroke="url(#paint2_linear_1_20205)" stroke-width="2" stroke-miterlimit="10"/>
<g style="mix-blend-mode:multiply" opacity="0.52">
<path d="M167.005 288.335C169.521 289.271 173.785 289.777 175.455 291.772C177.164 293.819 176.333 297.322 176.647 300.525C178.395 300.668 180.151 300.61 181.718 301.025C182.682 301.279 183.349 302.279 184.156 302.942C183.349 303.592 182.667 304.508 181.71 304.814C180.629 305.158 179.288 304.97 178.065 304.97C134.034 304.976 90.0113 304.976 45.9804 304.983C45.1024 304.983 44.0912 305.197 43.3779 304.911C42.1393 304.411 41.0968 303.592 39.968 302.903C41.1281 302.234 42.1942 301.389 43.4641 300.954C44.5302 300.59 45.8393 300.707 47.313 300.59C47.4541 299.342 47.8147 298.192 47.6579 297.088C47.0386 292.695 48.2223 289.622 54.5483 289.518C55.4654 289.505 56.6099 288.569 57.1351 287.815C57.3467 287.516 56.3277 286.282 55.5673 285.924C51.4441 284.001 52.0477 281.48 54.415 279.036C56.8294 276.548 59.7925 274.423 62.2539 271.96C63.1397 271.076 63.4219 269.699 63.7119 268.497C66.4869 257.112 68.7131 245.611 72.0995 234.356C74.8196 225.305 79.5307 217.091 88.616 210.6C93.5388 207.085 96.2589 201.438 100.084 196.61C98.3676 195.947 96.4157 195.193 94.4638 194.44C94.4089 194.017 94.354 193.601 94.307 193.179C96.9566 192.536 99.6688 192.042 102.232 191.21C104.043 190.619 105.642 189.579 107.335 188.734C106.269 187.74 105.368 186.558 104.106 185.784C101.386 184.101 100.79 182.152 102.397 179.728C103.071 178.714 103.667 177.577 104.639 176.791C110.941 171.69 112.078 165.446 111.553 158.467C111.027 151.534 111.435 144.548 111.435 137.686C121.649 135.503 131.095 135.555 141.066 138.291C146.702 139.837 153.592 138.245 160.31 138.057C156.767 140.052 153.012 142.17 148.207 144.88C151.86 145.406 154.76 145.828 157.402 146.212C152.62 149.571 145.119 150.305 136.778 147.674C130.084 145.562 123.475 145.484 116.679 147.089C113.951 147.732 112.642 148.856 112.744 151.391C112.956 156.472 112.619 161.573 112.901 166.654C112.995 168.389 113.983 170.222 115.072 171.768C116.75 174.14 118.898 176.284 120.787 178.559C123.287 181.567 123.303 184.166 119.078 186.239C118.043 186.746 116.562 188.292 116.797 188.611C117.518 189.605 118.827 190.58 120.152 190.95C123.225 191.801 126.439 192.289 129.59 192.926C129.652 193.335 129.715 193.744 129.778 194.147C127.803 194.998 125.835 195.856 123.334 196.941C128.876 202.698 134.614 208.228 139.741 214.135C143.284 218.216 146.584 222.602 148.936 227.215C155.685 240.471 158.014 254.63 160.295 268.77C160.561 270.414 161.086 271.284 163.109 272.512C166.581 274.624 169.333 278.14 170.908 281.538C171.598 283.026 168.651 285.671 167.013 288.348L167.005 288.335Z" stroke="url(#paint3_linear_1_20205)" stroke-width="2" stroke-miterlimit="10"/>
<path d="M173.006 361.697C174.252 365.303 176.188 368.234 176.039 371.093C175.828 375.18 177.787 377.305 181.911 378.728C182.608 378.969 183.157 379.488 184.701 380.463H40.858C43.1391 378.176 45.9847 376.148 47.4976 373.582C48.9477 371.132 49.0105 368.117 49.8179 364.796C49.8179 363.276 49.7316 361.437 49.8335 359.605C50.1001 354.764 50.1393 349.897 50.8526 345.095C51.7227 339.214 53.2121 333.392 54.3566 327.537C55.0386 324.067 53.9725 321.462 48.8615 321.202C48.352 316.491 47.8581 311.968 47.3173 307.01H75.0512C74.5809 311.572 74.1027 316.159 73.5853 321.163C67.0242 321.228 67.5415 325.25 68.1922 328.889C69.2347 334.756 70.5203 340.624 72.19 346.388C73.7891 351.892 74.9885 357.233 70.8731 362.425C71.6099 363.913 76.7444 364.667 71.7275 366.889C76.227 371.015 81.5418 369.111 85.6885 369.352C87.1779 364.511 88.5184 360.15 90.1802 354.751C87.0211 351.963 86.7781 347.882 90.6114 343.639C91.1366 343.054 91.2385 341.93 90.9798 341.189C89.2004 336.076 92.1321 333.093 97.0235 330.351C101.468 327.862 105.27 324.587 109.135 321.819C114.222 325.205 119.607 328.791 124.977 332.385C125.518 332.749 126.302 333.145 126.411 333.619C127.305 337.31 127.274 341.313 129.069 344.646C131.311 348.799 131.209 352.138 128.324 354.783C129.947 359.845 131.389 364.329 132.933 369.131C140.89 370.443 147.827 369.852 152.264 367.149C151.496 366.441 150.743 365.752 149.842 364.926C151.033 364.082 152.029 363.373 153.189 362.542C148.909 357.122 150.281 351.651 151.935 346.017C153.628 340.254 155.039 334.399 155.878 328.518C156.654 323.08 156.246 323.041 150.406 320.786C149.881 316.309 149.356 311.806 148.752 306.62H176.518C176.063 311.526 175.694 315.912 175.201 320.292C175.154 320.714 174.362 321.377 173.837 321.429C168.898 321.91 169.259 324.932 169.729 327.648C170.764 333.665 171.806 339.701 173.453 345.615C175.067 351.391 176.674 356.999 172.99 361.703L173.006 361.697ZM109.534 330.773C95.8947 339.675 91.0582 354.237 96.7178 369.501C104.29 369.501 111.988 369.598 119.67 369.391C120.799 369.358 122.821 367.857 122.829 367.032C122.892 354.77 126.419 341.644 111.424 332.807C110.749 332.411 110.357 331.676 109.542 330.773H109.534Z" stroke="url(#paint4_linear_1_20205)" stroke-width="2" stroke-miterlimit="10"/>
<path d="M186.952 381.815V400.704H36.6415C36.6415 395.019 36.5004 389.534 36.7983 384.063C36.8453 383.277 38.9383 382.029 40.2003 381.919C43.673 381.62 47.2004 381.815 50.7123 381.815C93.3244 381.815 135.936 381.815 178.549 381.815C181.159 381.815 183.769 381.815 186.952 381.815Z" stroke="url(#paint5_linear_1_20205)" stroke-width="2" stroke-miterlimit="10"/>
</g>
<defs>
<linearGradient id="paint0_linear_1_20205" x1="440.942" y1="747.104" x2="135.563" y2="109.021" gradientUnits="userSpaceOnUse">
<stop stop-color="#E93B77"/>
<stop offset="0.19" stop-color="#EA4E6C"/>
<stop offset="0.73" stop-color="#ED814F"/>
<stop offset="1" stop-color="#EF9545"/>
</linearGradient>
<linearGradient id="paint1_linear_1_20205" x1="767.494" y1="640.706" x2="458.591" y2="-4.7362" gradientUnits="userSpaceOnUse">
<stop stop-color="#E93B77"/>
<stop offset="0.19" stop-color="#EA4E6C"/>
<stop offset="0.73" stop-color="#ED814F"/>
<stop offset="1" stop-color="#EF9545"/>
</linearGradient>
<linearGradient id="paint2_linear_1_20205" x1="516.164" y1="405.208" x2="361.318" y2="81.6647" gradientUnits="userSpaceOnUse">
<stop stop-color="#E93B77"/>
<stop offset="0.19" stop-color="#EA4E6C"/>
<stop offset="0.73" stop-color="#ED814F"/>
<stop offset="1" stop-color="#EF9545"/>
</linearGradient>
<linearGradient id="paint3_linear_1_20205" x1="165.68" y1="313.261" x2="86.8639" y2="148.569" gradientUnits="userSpaceOnUse">
<stop stop-color="#E93B77"/>
<stop offset="0.19" stop-color="#EA4E6C"/>
<stop offset="0.73" stop-color="#ED814F"/>
<stop offset="1" stop-color="#EF9545"/>
</linearGradient>
<linearGradient id="paint4_linear_1_20205" x1="147.6" y1="399.976" x2="92.2909" y2="284.422" gradientUnits="userSpaceOnUse">
<stop stop-color="#E93B77"/>
<stop offset="0.19" stop-color="#EA4E6C"/>
<stop offset="0.73" stop-color="#ED814F"/>
<stop offset="1" stop-color="#EF9545"/>
</linearGradient>
<linearGradient id="paint5_linear_1_20205" x1="136.062" y1="426.085" x2="100.603" y2="352.003" gradientUnits="userSpaceOnUse">
<stop stop-color="#E93B77"/>
<stop offset="0.19" stop-color="#EA4E6C"/>
<stop offset="0.73" stop-color="#ED814F"/>
<stop offset="1" stop-color="#EF9545"/>
</linearGradient>
</defs>
</svg>
